<?xml version="1.0" encoding="UTF-8"?>
<svg width="260px" height="54px" viewBox="0 0 260 54" version="1.1" xmlns="http://www.w3.org/2000/svg" xmlns:xlink="http://www.w3.org/1999/xlink">
    <!-- Generator: Sketch 56.3 (81716) - https://sketch.com -->
    <title>Impromptu-logo</title>
    <desc>Created with Sketch.</desc>
    <g id="Symbols" stroke="none" stroke-width="1" fill="none" fill-rule="evenodd">
        <g id="Header-/-Impromptu" transform="translate(-590.000000, -70.000000)" fill="#D1453D" fill-rule="nonzero">
            <g id="Header-/-Mackenzie" transform="translate(0.000000, -2.000000)">
                <path d="M664.669996,82.9454156 C670.513735,82.9454156 674.966108,87.4905458 674.966108,94.1691045 C674.966108,100.476632 670.606493,105.485551 664.206208,105.485551 C661.237959,105.485551 658.455227,104.186943 656.507314,102.424545 L656.507314,113.555476 L660.681413,113.555476 L660.681413,115.317874 L650.756333,115.317874 L650.756333,113.555476 L654.559401,113.555476 L654.559401,84.9860863 L650.756333,84.9860863 L650.756333,83.3164467 L656.507314,83.3164467 L656.507314,86.9339993 C658.547984,84.6150553 661.237959,82.9454156 664.669996,82.9454156 Z M664.298965,103.723154 C669.400642,103.723154 672.925437,99.5490546 673.018195,94.1691045 C673.018195,88.603639 669.4934,84.7078131 664.484481,84.7078131 C661.145202,84.7078131 658.547984,86.3774527 656.507314,88.6963967 L656.507314,100.56939 C658.455227,102.331787 660.959686,103.723154 664.298965,103.723154 Z M697.042455,84.9860863 C697.042455,85.9136639 696.39315,86.7484838 695.280057,86.7484838 C694.352479,86.7484838 693.51766,85.9136639 693.424902,84.9860863 C691.384231,85.3571174 689.34356,87.4905458 687.952194,90.0877631 L687.952194,103.352123 L692.219051,103.352123 L692.219051,105.11452 L682.201213,105.11452 L682.201213,103.352123 L686.004281,103.352123 L686.004281,84.9860863 L682.201213,84.9860863 L682.201213,83.1309311 L687.859436,83.1309311 L687.859436,88.0470924 C689.529076,85.1716019 692.219051,82.8526579 694.445237,82.8526579 C696.114877,82.8526579 697.042455,83.8729932 697.042455,84.9860863 Z M713.460578,82.9454156 C719.953621,82.9454156 724.498751,87.8615769 724.498751,94.1691045 C724.498751,100.476632 719.953621,105.392793 713.460578,105.392793 C706.967535,105.392793 702.422405,100.476632 702.422405,94.1691045 C702.422405,87.9543346 707.060293,82.9454156 713.460578,82.9454156 Z M713.460578,103.723154 C718.74777,103.723154 722.458081,99.6418123 722.458081,94.1691045 C722.458081,88.6963967 718.74777,84.6150553 713.460578,84.6150553 C708.173386,84.6150553 704.463075,88.6963967 704.463075,94.1691045 C704.463075,99.6418123 708.266143,103.723154 713.460578,103.723154 Z M789.892972,82.9454156 C795.736711,82.9454156 800.281841,87.4905458 800.189083,94.1691045 C800.189083,100.476632 795.829468,105.485551 789.429183,105.485551 C786.460935,105.485551 783.678202,104.186943 781.730289,102.424545 L781.730289,113.555476 L785.904388,113.555476 L785.904388,115.317874 L775.979308,115.317874 L775.979308,113.555476 L779.782376,113.555476 L779.782376,84.9860863 L775.979308,84.9860863 L775.979308,83.3164467 L781.730289,83.3164467 L781.730289,86.9339993 C783.77096,84.6150553 786.460935,82.9454156 789.892972,82.9454156 Z M789.521941,103.723154 C794.716375,103.723154 798.24117,99.5490546 798.24117,94.1691045 C798.24117,88.603639 794.716375,84.7078131 789.707456,84.7078131 C786.368177,84.7078131 783.77096,86.3774527 781.730289,88.6963967 L781.730289,100.56939 C783.678202,102.331787 786.182661,103.723154 789.521941,103.723154 Z M812.525865,102.146272 C812.989654,103.166607 813.917232,103.630396 815.308598,103.537638 C816.699964,103.537638 817.998573,102.981092 819.297182,102.23903 L819.018908,104.186943 C817.998573,104.836247 816.699964,105.392793 814.937567,105.392793 C812.896896,105.392793 811.50553,104.557974 810.763468,102.981092 C810.392437,102.23903 810.206921,101.311452 810.206921,100.291117 L810.206921,84.9860863 L806.218337,84.9860863 L806.218337,83.2236889 L810.206921,83.2236889 L810.206921,77.3799501 L812.154834,76.7306457 L812.154834,83.2236889 L819.204424,83.2236889 L819.204424,84.9860863 L812.154834,84.9860863 L812.154834,100.105601 C812.154834,100.940421 812.247592,101.589725 812.525865,102.146272 Z M846.104174,103.352123 L850,103.352123 L850,105.11452 L844.249019,105.11452 L844.249019,100.476632 C842.208348,103.073849 839.054584,105.485551 835.622547,105.485551 C832.747057,105.485551 830.891902,104.2797 829.871566,102.517303 C829.222262,101.311452 828.943989,99.7345701 828.943989,97.9721727 L828.943989,84.9860863 L825.14092,84.9860863 L825.14092,83.2236889 L830.891902,83.2236889 L830.891902,97.6938994 C830.891902,99.1780235 831.077417,100.476632 831.541206,101.40421 C832.376026,102.888334 833.767392,103.630396 835.900821,103.630396 C839.054584,103.630396 841.930075,101.311452 844.156261,98.7142347 L844.156261,84.9860863 L840.353193,84.9860863 L840.353193,83.2236889 L846.104174,83.2236889 L846.104174,103.352123 Z M641.75883,90.3660364 L641.75883,103.44488 L645.561898,103.44488 L645.561898,105.207278 L636.007849,105.207278 L636.007849,103.44488 L639.810917,103.44488 L639.810917,90.7370674 C639.810917,89.2529433 639.625401,88.0470924 639.25437,87.2122726 C638.605066,85.5426329 637.2137,84.7078131 635.080271,84.7078131 C632.112023,84.7078131 629.32929,86.7484838 627.010346,89.345701 L627.010346,103.44488 L630.813414,103.44488 L630.813414,105.207278 L621.259365,105.207278 L621.259365,103.44488 L625.062433,103.44488 L625.062433,90.7370674 C625.062433,89.345701 624.876918,88.1398502 624.505887,87.2122726 C623.856582,85.5426329 622.465216,84.7078131 620.331787,84.7078131 C617.270781,84.7078131 614.488049,86.8412415 612.261862,89.4384588 L612.261862,103.352123 L615.972173,103.352123 L615.972173,105.11452 L606.510881,105.11452 L606.510881,103.352123 L610.313949,103.352123 L610.313949,84.9860863 L606.510881,84.9860863 L606.510881,83.3164467 L612.169105,83.3164467 L612.169105,87.6760614 C614.209775,85.2643596 617.270781,82.9454156 620.610061,82.9454156 C623.392793,82.9454156 625.155191,83.965751 626.082768,85.7281484 C626.361042,86.284695 626.546557,87.026757 626.732073,87.6760614 C629.143775,84.9860863 632.297538,82.9454156 635.358544,82.9454156 C638.41955,82.9454156 640.08919,84.1512665 641.016768,86.0991795 C641.573314,87.3050303 641.75883,88.6963967 641.75883,90.3660364 Z M596.029254,83.2236889 L596.029254,103.352123 L600.110596,103.352123 L600.110596,105.11452 L590,105.11452 L590,103.352123 L594.081341,103.352123 L594.081341,84.9860863 L590,84.9860863 L590,83.2236889 L596.029254,83.2236889 Z M766.981805,90.3660364 L766.981805,103.44488 L770.784873,103.44488 L770.784873,105.207278 L761.230824,105.207278 L761.230824,103.44488 L765.033892,103.44488 L765.033892,90.7370674 C765.033892,89.2529433 764.848377,88.0470924 764.477346,87.2122726 C763.828041,85.5426329 762.436675,84.7078131 760.303247,84.7078131 C757.334998,84.7078131 754.552265,86.7484838 752.233321,89.345701 L752.233321,103.44488 L756.03639,103.44488 L756.03639,105.207278 L746.48234,105.207278 L746.48234,103.44488 L750.285408,103.44488 L750.285408,90.7370674 C750.285408,89.345701 750.099893,88.1398502 749.728862,87.2122726 C749.079558,85.5426329 747.688191,84.7078131 745.554763,84.7078131 C742.493757,84.7078131 739.711024,86.8412415 737.484838,89.4384588 L737.484838,103.352123 L741.287906,103.352123 L741.287906,105.11452 L731.733857,105.11452 L731.733857,103.352123 L735.536925,103.352123 L735.536925,84.9860863 L731.733857,84.9860863 L731.733857,83.3164467 L737.39208,83.3164467 L737.39208,87.6760614 C739.432751,85.2643596 742.493757,82.9454156 745.833036,82.9454156 C748.615769,82.9454156 750.378166,83.965751 751.305744,85.7281484 C751.584017,86.284695 751.769533,87.026757 751.955048,87.6760614 C754.36675,84.9860863 757.520514,82.9454156 760.58152,82.9454156 C763.642526,82.9454156 765.312166,84.1512665 766.239743,86.0991795 C766.79629,87.3050303 766.981805,88.6963967 766.981805,90.3660364 Z M594.637888,75.8958259 C593.524795,75.8958259 592.689975,75.0610061 592.782733,73.947913 C592.782733,72.9275776 593.617553,72 594.637888,72 C595.658223,72 596.493043,72.9275776 596.493043,73.947913 C596.493043,74.9682483 595.658223,75.8958259 594.637888,75.8958259 Z M687.952194,121.810917 L687.859436,121.810917 L687.859436,120.883339 L691.0132,120.883339 L691.0132,123.944345 C690.271138,124.59365 689.250803,125.150196 687.952194,125.150196 C685.540492,125.150196 684.056368,123.480557 684.056368,121.25437 C684.056368,119.120942 685.540492,117.265787 687.859436,117.265787 C689.158045,117.265787 689.992865,117.636818 690.734927,118.286122 L690.17838,118.935426 C689.621834,118.471638 688.972529,118.100606 687.859436,118.100606 C686.189797,118.100606 684.983946,119.584731 684.983946,121.25437 C684.983946,123.016768 686.189797,124.408134 688.044952,124.408134 C688.972529,124.408134 689.714592,124.129861 690.271138,123.666072 L690.271138,121.810917 L687.952194,121.810917 Z M741.380664,121.625401 L741.380664,124.315376 L746.111309,124.315376 L746.111309,125.057438 L740.545844,125.057438 L740.545844,117.451302 L746.018552,117.451302 L746.018552,118.193364 L741.380664,118.193364 L741.380664,120.883339 L745.554763,120.883339 L745.554763,121.625401 L741.380664,121.625401 Z M732.197645,121.625401 L734.980378,117.451302 L735.815198,117.451302 L735.815198,125.057438 L734.980378,125.057438 L734.980378,118.935426 L732.197645,123.016768 L729.414913,118.935426 L729.414913,125.057438 L728.487335,125.057438 L728.487335,117.451302 L729.414913,117.451302 L732.197645,121.625401 Z M749.82162,118.193364 L749.82162,117.451302 L755.758116,117.451302 L755.758116,118.193364 L753.253657,118.193364 L753.253657,125.057438 L752.326079,125.057438 L752.326079,118.193364 L749.82162,118.193364 Z M699.083125,117.265787 C701.402069,117.265787 702.978951,119.120942 702.978951,121.161613 C702.978951,123.295041 701.402069,125.150196 699.083125,125.150196 C696.764181,125.150196 695.187299,123.387799 695.187299,121.25437 C695.187299,119.120942 696.764181,117.265787 699.083125,117.265787 Z M702.144131,121.25437 C702.144131,119.491973 700.93828,118.100606 699.175883,118.100606 C697.413486,118.100606 696.207635,119.491973 696.207635,121.25437 C696.207635,123.016768 697.413486,124.408134 699.175883,124.408134 C700.93828,124.408134 702.144131,123.016768 702.144131,121.25437 Z M712.718516,121.903675 L712.718516,117.451302 L713.553336,117.451302 L713.553336,121.903675 C713.553336,124.129861 712.347485,125.242954 710.399572,125.242954 C708.544417,125.242954 707.245808,124.037103 707.245808,121.903675 L707.245808,117.451302 L708.080628,117.451302 L708.080628,121.810917 C708.080628,123.480557 708.915448,124.408134 710.399572,124.408134 C711.790938,124.408134 712.718516,123.573314 712.718516,121.903675 Z M724.12772,119.770246 C724.12772,120.976097 723.2929,121.718159 722.179807,121.903675 L724.498751,125.057438 L723.478416,125.057438 L721.25223,122.08919 L719.026044,122.08919 L719.026044,125.150196 L718.191224,125.150196 L718.191224,117.54406 L721.437745,117.54406 C722.365323,117.54406 723.107385,117.822333 723.571174,118.286122 C723.942205,118.657153 724.12772,119.120942 724.12772,119.770246 Z M719.026044,121.347128 L721.344988,121.347128 C722.458081,121.347128 723.2929,120.790582 723.2929,119.770246 C723.2929,118.842669 722.550838,118.286122 721.344988,118.286122 L719.026044,118.286122 L719.026044,121.347128 Z" id="Impromptu-logo"></path>
            </g>
        </g>
    </g>
</svg>